<svg width="604" height="597" xmlns="http://www.w3.org/2000/svg" xmlns:xlink="http://www.w3.org/1999/xlink" overflow="hidden"><defs><clipPath id="clip0"><rect x="289" y="41" width="604" height="597"/></clipPath></defs><g clip-path="url(#clip0)" transform="translate(-289 -41)"><path d="M785.123 391.702C806.09 388.023 839.24 489.166 824.903 513.074 810.566 536.982 705.731 555.38 699.101 535.151L785.123 391.702Z" fill="#92D050" fill-rule="evenodd"/><path d="M781 318.395C803.4 310.734 895.793 384.721 891.872 407.179 887.952 429.637 775.954 467.94 757.475 453.143L781 318.395Z" fill="#92D050" fill-rule="evenodd"/><path d="M753.611 221.817C763.917 201.255 874.848 231.583 886.728 258.211 898.608 284.839 847.078 387.649 824.892 381.583L753.611 221.817Z" fill="#92D050" fill-rule="evenodd"/><path d="M674.885 147.863C680.061 124.936 796.659 110.25 814.803 130.24 832.948 150.23 807.071 264.865 783.752 267.802L674.885 147.863Z" fill="#92D050" fill-rule="evenodd"/><path d="M579.141 109.547C580.222 85.5853 686.898 30.7863 707.152 43.7879 727.407 56.7894 722.001 176.596 700.666 187.556L579.141 109.547Z" fill="#92D050" fill-rule="evenodd"/><path d="M289 313.467C289 174.969 456.333 90.6675 540 96.2622 623.667 101.857 791 208.537 791 347.036 791 485.534 623.667 603.404 540 597.809 456.333 592.214 289 451.965 289 313.467Z" fill="#79DCFF" fill-rule="evenodd"/><path d="M327 342C327 203.377 439.377 91 578 91 716.623 91 829 203.377 829 342 829 480.623 716.623 593 578 593 439.377 593 327 480.623 327 342Z" fill="#79DCFF" fill-rule="evenodd"/><path d="M327 301C327 292.163 334.163 285 343 285 351.837 285 359 292.163 359 301 359 309.837 351.837 317 343 317 334.163 317 327 309.837 327 301Z" fill="#404040" fill-rule="evenodd"/><path d="M0 4.05553C0-1.35188 21.67-1.35188 32.505 4.05553L64.8086 31.4738C75.6436 42.2887 43.34 63.5371 32.505 68.9445 21.67 74.3519 0 74.3519 0 68.9445 0 63.5371 32.505 47.3148 32.505 36.5 32.505 25.6852 0 9.46294 0 4.05553Z" fill="#404040" fill-rule="evenodd" transform="matrix(-1 -8.74228e-08 -8.74228e-08 1 576 179)"/><path d="M579 337.5C579 323.417 602.505 312 631.5 312 660.495 312 684 323.417 684 337.5 684 351.583 660.495 363 631.5 363 602.505 363 579 351.583 579 337.5Z" fill="#FCC8DD" fill-rule="evenodd"/><path d="M451.5 603C406.833 590.833 406.833 542.167 451.5 530L719.5 530C764.167 542.167 764.167 590.833 719.5 603L451.5 603Z" stroke="#385723" stroke-width="8" stroke-miterlimit="8" fill="#70AD47" fill-rule="evenodd"/><text fill="#FFFFFF" font-family="Franklin Gothic,Franklin Gothic_MSFontService,sans-serif" font-weight="600" font-stretch="condensed" font-size="59" transform="translate(480.061 588)">dinoCod<tspan x="184" y="0">e</tspan></text><path d="M613 346C617.343 337.585 621.686 329.17 626.029 329.001 630.371 328.832 634.895 344.689 639.057 344.985 643.219 345.281 651 330.777 651 330.777L651 330.777" stroke="#F98FBA" stroke-width="4" stroke-miterlimit="8" fill="none" fill-rule="evenodd"/></g></svg>